<svg width="300" height="300" viewBox="0 0 1024 1024" version="1.1" xmlns="http://www.w3.org/2000/svg"><path d="M633.933728-0.026447h272.932668a116.974922 116.974922 0 0 1 116.895581 117.001369v267.114337m0 289.594256v233.077093a116.974922 116.974922 0 0 1-116.895581 117.001369H640.280999m-233.526692 0H116.895581a116.974922 116.974922 0 0 1-116.895581-117.001369v-223.661974m0-297.554792V116.974922A116.974922 116.974922 0 0 1 116.895581-0.026447h285.098272m475.780883 526.559054l-349.099925 175.713629V350.792531l349.099925 175.740076m-294.619179 0l-349.099925 175.713629V350.792531l349.099925 175.740076" fill="#D81E06" class=""></path></svg>